# xmcd
#
# Track frame offsets:
#	150
#	15971
#	23728
#	35294
#	47287
#	59615
#	70052
#	82668
#	98170
#	111940
#	125287
#	140277
#	152385
#	164703
#	177760
#	194118
#
# Disc length: 2747 seconds
#
# Revision: 0
# Processed by: cddbd v1.5.1PL0 Copyright (c) Steve Scherf et al.
# Submitted via: dBpowerAMP V4.0
#
DISCID=c20ab910
DTITLE=Método Marito - Terceiro Estágio
DYEAR=2004
DGENRE=Country
TTITLE0=Confiança
TTITLE1=Pagode
TTITLE2=Com Deus na frente
TTITLE3=Sete Flechas
TTITLE4=Rancho do Ipês
TTITLE5=Linha de Frente
TTITLE6=Tem e não tem
TTITLE7=Uma coisa puxa outra
TTITLE8=Bandeira Branca
TTITLE9=Nó cego
TTITLE10=Nove nove
TTITLE11=Viola divina
TTITLE12=Minas Gerais
TTITLE13=Suspiro da viúva
TTITLE14=Azulão do Reino encantado
TTITLE15=O que vou dizer agora
EXTD=
EXTT0=
EXTT1=
EXTT2=
EXTT3=
EXTT4=
EXTT5=
EXTT6=
EXTT7=
EXTT8=
EXTT9=
EXTT10=
EXTT11=
EXTT12=
EXTT13=
EXTT14=
EXTT15=
PLAYORDER=
